# xmcd
#
# Track frame offsets: 
#        150
#        16820
#        34910
#        58430
#        74728
#        91828
#        116938
#        137878
#        155338
#        173115
#        193215
#        220965
#        250485
#        273225
#
# Disc length: 4153 seconds
#
# Revision: 0
# Processed by: cddbd v1.5.2PL0 Copyright (c) Steve Scherf et al.
# Submitted via: ExactAudioCopy v1.2
#
DISCID=db10370e
DTITLE=Wee Willie Walker and The Greaseland All Stars - Live! Notodden B
DTITLE=lues Festival
DYEAR=2016
DGENRE=Blues
TTITLE0=Intro (Memphis Troll Stew) (Live)
TTITLE1=Between the Lines (Live)
TTITLE2=Is That It? (Live)
TTITLE3=You Name It, I've Had It (Live)
TTITLE4=Ticket to Ride (Live)
TTITLE5=Little Red Rooster (Live)
TTITLE6=Funky Way (Live)
TTITLE7=There Goes My Used to Be (Live)
TTITLE8=I Ain't Gonna Cheat on You No More (Live)
TTITLE9=I've Been Watching You (Live)
TTITLE10=Can I Change My Mind (Live)
TTITLE11=A Change Is Gonna Come (Live)
TTITLE12=A Lucky Loser (Live)
TTITLE13=Help! (Live)
EXTD=
EXTT0=
EXTT1=
EXTT2=
EXTT3=
EXTT4=
EXTT5=
EXTT6=
EXTT7=
EXTT8=
EXTT9=
EXTT10=
EXTT11=
EXTT12=
EXTT13=
PLAYORDER=
